<svg width="25" height="24" viewBox="0 0 25 24" fill="none" xmlns="http://www.w3.org/2000/svg">
<path d="M12.604 3C7.63525 3 3.604 7.03125 3.604 12C3.604 16.9687 7.63525 21 12.604 21C17.5727 21 21.604 16.9687 21.604 12C21.604 7.03125 17.5727 3 12.604 3ZM12.3228 17.25C12.1373 17.25 11.9561 17.195 11.8019 17.092C11.6477 16.989 11.5276 16.8426 11.4566 16.6713C11.3857 16.5 11.3671 16.3115 11.4033 16.1296C11.4394 15.9477 11.5287 15.7807 11.6598 15.6496C11.7909 15.5185 11.958 15.4292 12.1399 15.393C12.3217 15.3568 12.5102 15.3754 12.6815 15.4464C12.8528 15.5173 12.9992 15.6375 13.1023 15.7916C13.2053 15.9458 13.2603 16.1271 13.2603 16.3125C13.2603 16.5611 13.1615 16.7996 12.9857 16.9754C12.8098 17.1512 12.5714 17.25 12.3228 17.25ZM13.8903 12.4687C13.1304 12.9787 13.0259 13.4461 13.0259 13.875C13.0259 14.049 12.9567 14.216 12.8337 14.339C12.7106 14.4621 12.5437 14.5312 12.3696 14.5312C12.1956 14.5312 12.0287 14.4621 11.9056 14.339C11.7825 14.216 11.7134 14.049 11.7134 13.875C11.7134 12.848 12.1859 12.0314 13.1581 11.3784C14.0618 10.7719 14.5727 10.3875 14.5727 9.54234C14.5727 8.96765 14.2446 8.53125 13.5654 8.20828C13.4056 8.13234 13.0498 8.05828 12.612 8.06344C12.0626 8.07047 11.636 8.20172 11.3074 8.46609C10.6878 8.96484 10.6353 9.50765 10.6353 9.51562C10.6311 9.6018 10.61 9.68632 10.5732 9.76435C10.5364 9.84238 10.4845 9.91239 10.4207 9.97039C10.3568 10.0284 10.2821 10.0732 10.2009 10.1024C10.1197 10.1315 10.0335 10.1444 9.94736 10.1402C9.86118 10.1361 9.77666 10.115 9.69863 10.0782C9.6206 10.0414 9.55059 9.98952 9.49259 9.92565C9.43459 9.86177 9.38974 9.7871 9.3606 9.70589C9.33146 9.62468 9.3186 9.53852 9.32275 9.45234C9.32791 9.33843 9.40713 8.31234 10.4838 7.44609C11.0421 6.99703 11.7523 6.76359 12.5932 6.75328C13.1885 6.74625 13.7477 6.84703 14.127 7.02609C15.2618 7.56281 15.8852 8.45765 15.8852 9.54234C15.8852 11.1281 14.8254 11.8402 13.8903 12.4687Z" fill="white"/>
</svg>
