<svg width="24" height="25" viewBox="0 0 24 25" fill="none" xmlns="http://www.w3.org/2000/svg">
<path d="M17.1615 7.31579V6.28096C17.1615 6.02009 17.1615 5.88965 17.1567 5.77941C17.0424 3.19132 14.9702 1.11916 12.3821 1.00487C12.2719 1 12.1414 1 11.8806 1V1C11.6197 1 11.4893 1 11.379 1.00487C8.79093 1.11916 6.71877 3.19132 6.60448 5.77941C6.59961 5.88965 6.59961 6.02009 6.59961 6.28096V7.31579" stroke="white" stroke-width="2" stroke-linecap="round"/>
<path fill-rule="evenodd" clip-rule="evenodd" d="M0.87868 6.93337C0 7.81205 0 9.22626 0 12.0547V17.0021C0 20.7733 0 22.6589 1.17157 23.8305C2.34315 25.0021 4.22877 25.0021 8.00001 25.0021H15.7643C19.5355 25.0021 21.4212 25.0021 22.5927 23.8305C23.7643 22.6589 23.7643 20.7733 23.7643 17.0021V12.0547C23.7643 9.22626 23.7643 7.81205 22.8856 6.93337C22.007 6.05469 20.5927 6.05469 17.7643 6.05469H6C3.17157 6.05469 1.75736 6.05469 0.87868 6.93337ZM11.8822 16.6844C13.0493 16.6844 13.8429 15.8009 13.8429 14.8949C13.8429 13.989 13.0493 13.1055 11.8822 13.1055C10.7151 13.1055 9.92144 13.989 9.92144 14.8949C9.92144 15.8009 10.7151 16.6844 11.8822 16.6844ZM15.8429 14.8949C15.8429 16.6573 14.5855 18.1386 12.8823 18.5626V21.2113H10.8823V18.5626C9.17891 18.1387 7.92144 16.6573 7.92144 14.8949C7.92144 12.8021 9.69471 11.1055 11.8822 11.1055C14.0696 11.1055 15.8429 12.8021 15.8429 14.8949Z" fill="white"/>
</svg>
