<svg width="25" height="19" viewBox="0 0 25 19" fill="none" xmlns="http://www.w3.org/2000/svg">
<path d="M12.2305 10.643C12.6728 10.643 13.1262 10.4147 13.5907 9.95822L23.2113 0.599524C22.7985 0.215466 22.0428 0.0234375 20.9444 0.0234375H3.14055C2.20428 0.0234375 1.55553 0.200974 1.1943 0.556046L10.8703 9.95822C11.3274 10.4147 11.7808 10.643 12.2305 10.643ZM0.276457 17.0017L8.09466 9.40388L0.25434 1.80604C0.0847799 2.11764 0 2.64301 0 3.38213V15.3822C0 16.1503 0.0921524 16.6901 0.276457 17.0017ZM3.4723 18.7517H21.2762C22.1977 18.7517 22.8427 18.5778 23.2113 18.23L15.2383 10.4691L14.5085 11.1974C13.7639 11.893 13.0046 12.2408 12.2305 12.2408C11.449 12.2408 10.6897 11.893 9.95244 11.1974L9.21155 10.4691L1.26064 18.2191C1.68086 18.5742 2.41808 18.7517 3.4723 18.7517ZM24.1512 16.9909C24.3282 16.672 24.4167 16.1358 24.4167 15.3822V3.38213C24.4167 2.65025 24.3356 2.13576 24.1734 1.83865L16.3552 9.40388L24.1512 16.9909Z" fill="white"/>
</svg>
