<svg width="88" height="78" viewBox="0 0 88 78" fill="none" xmlns="http://www.w3.org/2000/svg">
<g filter="url(#filter0_bd_7838_43810)">
<rect x="7" y="2.5" width="74" height="65" rx="10" fill="#0D2026" fill-opacity="0.26" shape-rendering="crispEdges"/>
<rect x="5.75" y="1.25" width="76.5" height="67.5" rx="11.25" stroke="white" stroke-width="2.5" shape-rendering="crispEdges"/>
</g>
<path d="M33.4636 30.8672H31.9476C30.6043 30.8672 29.5107 32.1281 29.5107 33.6772V48.7515C29.5107 49.1646 29.8019 49.5004 30.1604 49.5004H35.2512C35.61 49.5004 35.9011 49.1646 35.9011 48.7515V33.6772C35.9005 32.1281 34.8074 30.8672 33.4636 30.8672ZM34.2759 48.3767H31.1351C30.7765 48.3767 30.4854 48.041 30.4854 47.6273V33.6772C30.4854 32.7478 31.1416 31.9912 31.9476 31.9912H33.4642C34.2699 31.9912 34.9264 32.7479 34.9264 33.6772V47.6273C34.9258 48.041 34.6353 48.3767 34.2759 48.3767Z" fill="white"/>
<path d="M37.21 30.599V48.748C37.21 49.1612 37.5012 49.497 37.8599 49.497H42.9507C43.3095 49.497 43.6006 49.1612 43.6006 48.748V30.599C43.6006 29.0503 42.5069 27.7891 41.1637 27.7891H39.6469C38.3037 27.7891 37.21 29.0503 37.21 30.599ZM42.6258 47.6239C42.6258 48.0376 42.3347 48.3733 41.9759 48.3733H38.8346C38.476 48.3733 38.1849 48.0376 38.1849 47.6239V30.599C38.1849 29.67 38.8411 28.9131 39.6469 28.9131H41.1637C41.9694 28.9131 42.6258 29.67 42.6258 30.599V47.6239Z" fill="white"/>
<path d="M47.347 24.2266C46.0041 24.2266 44.9102 25.4875 44.9102 27.0365V48.7447C44.9102 49.1578 45.2013 49.4936 45.56 49.4936H50.651C51.0094 49.4936 51.3005 49.1578 51.3005 48.7447V27.0365C51.3005 25.4875 50.207 24.2266 48.8636 24.2266H47.347ZM49.6761 48.3699H46.5349C46.1761 48.3699 45.885 48.0342 45.885 47.6205V27.0365C45.885 26.1072 46.5413 25.3505 47.3469 25.3505H48.8636C49.6693 25.3505 50.3259 26.1072 50.3259 27.0365V47.6205C50.326 48.0342 50.0348 48.3699 49.6761 48.3699Z" fill="white"/>
<path d="M55.0463 21.6101C53.7029 21.6101 52.6094 22.8713 52.6094 24.4203V48.7503C52.6094 49.1635 52.9005 49.4993 53.2589 49.4993H58.3499C58.7086 49.4993 58.9998 49.1635 58.9998 48.7503V24.4194C58.9998 22.8706 57.9058 21.6094 56.5629 21.6094H55.0463V21.6101ZM57.375 48.3755H54.2338C53.8751 48.3755 53.584 48.0399 53.584 47.6261V24.4194C53.584 23.4903 54.2401 22.7334 55.0463 22.7334H56.5629C57.3687 22.7334 58.0248 23.4903 58.0248 24.4194V47.6261C58.0249 48.0399 57.7346 48.3755 57.375 48.3755Z" fill="white"/>
<path d="M29.6731 28.474C30.0021 28.7852 30.4166 28.9566 30.8422 28.9566C31.3965 28.9566 31.9157 28.674 32.2675 28.1811C32.2675 28.1811 32.3654 28.0431 32.4863 27.8724C32.6073 27.7021 32.8042 27.7013 32.9255 27.8724L33.1459 28.1803C33.4826 28.6538 34.0205 28.9363 34.584 28.9363C35.0142 28.9363 35.4242 28.7716 35.7387 28.4739C36.5245 27.73 36.6374 26.3878 35.9929 25.4833L35.5042 24.797C35.2762 24.4771 35.2762 23.9587 35.5042 23.6393L35.9929 22.9536C36.3048 22.5153 36.4509 21.9632 36.4029 21.3974C36.3561 20.8322 36.1194 20.3236 35.7387 19.9623C35.4242 19.6642 35.0142 19.5007 34.584 19.5007C34.0205 19.5007 33.4825 19.7831 33.1446 20.2554C33.1446 20.2554 33.0464 20.3932 32.9249 20.5641C32.8033 20.7341 32.6072 20.7341 32.4863 20.5641L32.2674 20.2554C31.9301 19.7824 31.3925 19.5 30.8293 19.5C30.3978 19.5 29.9876 19.6649 29.673 19.9631C29.2455 20.3677 29.0005 20.9664 29.0005 21.6049C29.0005 22.0942 29.1486 22.5737 29.419 22.9537L29.9077 23.6394C30.1358 23.9595 30.1358 24.478 29.9077 24.7971L29.4178 25.4844C29.1487 25.8635 29 26.3422 29 26.8316C29 27.4686 29.245 28.0673 29.6731 28.474ZM31.1691 24.7963C31.3972 24.4763 31.3966 23.9588 31.1691 23.6387L30.1717 22.2405C30.0436 22.0584 29.9747 21.8381 29.9747 21.6042C29.9747 21.3039 30.0904 21.0213 30.2905 20.831C30.4477 20.6819 30.6382 20.6024 30.8416 20.6024C31.1028 20.6024 31.3479 20.7358 31.5129 20.9673L32.2927 22.062C32.5201 22.3821 32.8898 22.3821 33.1173 22.062L33.8977 20.9673C34.1747 20.5778 34.7795 20.508 35.1202 20.8294C35.2989 20.9995 35.4092 21.2386 35.432 21.5045C35.4548 21.7707 35.3853 22.0314 35.2378 22.2373L34.2416 23.6363C34.0135 23.9564 34.0141 24.4749 34.2416 24.7942L35.239 26.1932C35.3859 26.3993 35.4535 26.6599 35.432 26.9267C35.4093 27.1935 35.2975 27.4332 35.1189 27.6017C34.779 27.9271 34.1772 27.8551 33.8977 27.4633L33.1173 26.3699C32.8892 26.0501 32.5195 26.0508 32.292 26.3699L31.5129 27.464C31.2199 27.8746 30.6459 27.9375 30.2919 27.6035C30.0898 27.4108 29.9747 27.1282 29.9747 26.8278C29.9747 26.5941 30.0417 26.3752 30.1717 26.1932L31.1691 24.7963Z" fill="white"/>
<defs>
<filter id="filter0_bd_7838_43810" x="0.5" y="-4" width="87" height="82" filterUnits="userSpaceOnUse" color-interpolation-filters="sRGB">
<feFlood flood-opacity="0" result="BackgroundImageFix"/>
<feGaussianBlur in="BackgroundImageFix" stdDeviation="2"/>
<feComposite in2="SourceAlpha" operator="in" result="effect1_backgroundBlur_7838_43810"/>
<feColorMatrix in="SourceAlpha" type="matrix" values="0 0 0 0 0 0 0 0 0 0 0 0 0 0 0 0 0 0 127 0" result="hardAlpha"/>
<feOffset dy="4"/>
<feGaussianBlur stdDeviation="2"/>
<feComposite in2="hardAlpha" operator="out"/>
<feColorMatrix type="matrix" values="0 0 0 0 0 0 0 0 0 0 0 0 0 0 0 0 0 0 0.25 0"/>
<feBlend mode="normal" in2="effect1_backgroundBlur_7838_43810" result="effect2_dropShadow_7838_43810"/>
<feBlend mode="normal" in="SourceGraphic" in2="effect2_dropShadow_7838_43810" result="shape"/>
</filter>
</defs>
</svg>
