<svg width="223" height="158" viewBox="0 0 223 158" fill="none" xmlns="http://www.w3.org/2000/svg">
<mask id="path-1-inside-1_7838_44154" fill="white">
<path fill-rule="evenodd" clip-rule="evenodd" d="M187.568 0C196.405 0 203.568 7.16345 203.568 16V67.7809L223 79L203.568 90.2191V142C203.568 150.837 196.404 158 187.568 158H16C7.16344 158 0 150.837 0 142V16C0 7.16344 7.16345 0 16 0H187.568Z"/>
</mask>
<path d="M203.568 67.7809H201.068V69.2243L202.318 69.946L203.568 67.7809ZM223 79L224.25 81.1651L228 79L224.25 76.8349L223 79ZM203.568 90.2191L202.318 88.054L201.068 88.7757V90.2191H203.568ZM206.068 16C206.068 5.78274 197.785 -2.5 187.568 -2.5V2.5C195.024 2.5 201.068 8.54416 201.068 16H206.068ZM206.068 67.7809V16H201.068V67.7809H206.068ZM202.318 69.946L221.75 81.1651L224.25 76.8349L204.818 65.6158L202.318 69.946ZM221.75 76.8349L202.318 88.054L204.818 92.3842L224.25 81.1651L221.75 76.8349ZM206.068 142V90.2191H201.068V142H206.068ZM187.568 160.5C197.785 160.5 206.068 152.217 206.068 142H201.068C201.068 149.456 195.024 155.5 187.568 155.5V160.5ZM16 160.5H187.568V155.5H16V160.5ZM-2.5 142C-2.5 152.217 5.78273 160.5 16 160.5V155.5C8.54416 155.5 2.5 149.456 2.5 142H-2.5ZM-2.5 16V142H2.5V16H-2.5ZM16 -2.5C5.78273 -2.5 -2.5 5.78273 -2.5 16H2.5C2.5 8.54416 8.54416 2.5 16 2.5V-2.5ZM187.568 -2.5H16V2.5H187.568V-2.5Z" fill="url(#paint0_linear_7838_44154)" mask="url(#path-1-inside-1_7838_44154)"/>
<defs>
<linearGradient id="paint0_linear_7838_44154" x1="203.568" y1="152.43" x2="-0.000143457" y2="-17.4296" gradientUnits="userSpaceOnUse">
<stop stop-color="#045965"/>
<stop offset="1" stop-color="white"/>
</linearGradient>
</defs>
</svg>
