<svg width="16" height="16" viewBox="0 0 16 16" fill="none" xmlns="http://www.w3.org/2000/svg">
<path d="M5.42535 8.00015C6.03851 8.00015 6.6379 7.78021 7.14772 7.36815C7.65755 6.95608 8.05491 6.3704 8.28955 5.68517C8.5242 4.99993 8.5856 4.24591 8.46597 3.51847C8.34635 2.79103 8.05109 2.12283 7.61752 1.59837C7.18395 1.07392 6.63154 0.716756 6.03016 0.572058C5.42878 0.427361 4.80544 0.501625 4.23895 0.785459C3.67246 1.06929 3.18828 1.54995 2.84763 2.16665C2.50697 2.78334 2.32515 3.50838 2.32515 4.25007C2.32515 5.24466 2.65177 6.1985 3.23317 6.90178C3.81457 7.60505 4.60312 8.00015 5.42535 8.00015ZM7.75049 9.87518C7.75224 9.56203 7.81975 9.25455 7.94668 8.98161C7.83042 8.96696 7.71659 8.93767 7.59548 8.93767H7.191C6.63739 9.24649 6.03499 9.40641 5.42535 9.40641C4.8157 9.40641 4.2133 9.24649 3.65969 8.93767H3.25521C2.39193 8.9379 1.56407 9.35282 0.953641 10.0912C0.343213 10.8296 0.000192631 11.831 0 12.8752L0 14.094C0 14.467 0.122485 14.8247 0.34051 15.0884C0.558535 15.3521 0.85424 15.5003 1.16257 15.5003H7.96605C7.82675 15.2164 7.75236 14.8929 7.75049 14.5628V9.87518ZM14.7259 8.93767H13.9509V6.59387C13.9509 5.97226 13.7467 5.3761 13.3834 4.93656C13.02 4.49701 12.5272 4.25007 12.0133 4.25007C11.4994 4.25007 11.0065 4.49701 10.6432 4.93656C10.2798 5.3761 10.0756 5.97226 10.0756 6.59387V8.93767H9.30059C9.09504 8.93767 8.8979 9.03644 8.75255 9.21226C8.6072 9.38808 8.52554 9.62654 8.52554 9.87518V14.5628C8.52554 14.8114 8.6072 15.0499 8.75255 15.2257C8.8979 15.4015 9.09504 15.5003 9.30059 15.5003H14.7259C14.9315 15.5003 15.1286 15.4015 15.274 15.2257C15.4193 15.0499 15.501 14.8114 15.501 14.5628V9.87518C15.501 9.62654 15.4193 9.38808 15.274 9.21226C15.1286 9.03644 14.9315 8.93767 14.7259 8.93767ZM12.0133 13.1565C11.86 13.1565 11.7101 13.1015 11.5827 12.9985C11.4552 12.8955 11.3559 12.7491 11.2972 12.5778C11.2386 12.4064 11.2232 12.2179 11.2531 12.0361C11.283 11.8542 11.3568 11.6872 11.4652 11.5561C11.5736 11.4249 11.7117 11.3356 11.8621 11.2995C12.0124 11.2633 12.1682 11.2819 12.3099 11.3528C12.4515 11.4238 12.5725 11.5439 12.6577 11.6981C12.7429 11.8523 12.7883 12.0336 12.7883 12.219C12.7883 12.4676 12.7067 12.7061 12.5613 12.8819C12.416 13.0577 12.2188 13.1565 12.0133 13.1565ZM12.7883 8.93767H11.2382V6.59387C11.2382 6.34522 11.3199 6.10676 11.4652 5.93094C11.6106 5.75513 11.8077 5.65635 12.0133 5.65635C12.2188 5.65635 12.416 5.75513 12.5613 5.93094C12.7067 6.10676 12.7883 6.34522 12.7883 6.59387V8.93767Z" fill="white"/>
</svg>
