<svg width="99" height="99" viewBox="0 0 99 99" fill="none" xmlns="http://www.w3.org/2000/svg">
<path d="M58.7812 16.5H40.2188C27.0931 16.5 20.5302 16.5 16.4526 20.6423C12.375 24.7847 12.375 31.4517 12.375 44.7857V54.2143C12.375 67.5483 12.375 74.2153 16.4526 78.3577C20.5302 82.5 27.0931 82.5 40.2188 82.5H58.7812C71.9069 82.5 78.4698 82.5 82.5474 78.3577C86.625 74.2153 86.625 67.5483 86.625 54.2143V44.7857C86.625 31.4517 86.625 24.7847 82.5474 20.6423C78.4698 16.5 71.9069 16.5 58.7812 16.5Z" fill="#11404A" stroke="white" stroke-width="4"/>
<path d="M28.875 33H41.25" stroke="white" stroke-width="4" stroke-linecap="round"/>
<path d="M61.875 64V51.5C61.875 50.5572 61.875 50.0858 62.1679 49.7929C62.4608 49.5 62.9322 49.5 63.875 49.5H84.625C85.5678 49.5 86.0392 49.5 86.3321 49.7929C86.625 50.0858 86.625 50.5572 86.625 51.5V64C86.625 64.9428 86.625 65.4142 86.3321 65.7071C86.0392 66 85.5678 66 84.625 66H63.875C62.9322 66 62.4608 66 62.1679 65.7071C61.875 65.4142 61.875 64.9428 61.875 64Z" stroke="white" stroke-width="4"/>
</svg>
