<svg width="88" height="78" viewBox="0 0 88 78" fill="none" xmlns="http://www.w3.org/2000/svg">
<g filter="url(#filter0_bd_7838_43830)">
<rect x="7" y="2.5" width="74" height="65" rx="10" fill="#0D2026" fill-opacity="0.26" shape-rendering="crispEdges"/>
<rect x="5.75" y="1.25" width="76.5" height="67.5" rx="11.25" stroke="white" stroke-width="2.5" shape-rendering="crispEdges"/>
</g>
<path d="M53.1023 51.6911C53.1017 51.6891 53.1011 51.6871 53.1005 51.685L49.4218 38.9418C54.845 36.8145 58.4285 31.6115 58.4285 25.7143C58.4287 17.8765 52.0522 11.5 44.2143 11.5C36.3763 11.5 30 17.8765 30 25.7143C30 28.808 30.977 31.7492 32.825 34.2203C34.402 36.3286 36.5703 37.9777 39.0069 38.9418L37.2753 44.94C37.2746 44.9422 37.274 44.9444 37.2734 44.9467L35.3282 51.6851C35.3276 51.6871 35.327 51.6891 35.3264 51.6912L33.5644 57.7948C33.3599 58.5029 33.7683 59.2429 34.4764 59.4473C35.1848 59.6518 35.9245 59.2434 36.1288 58.5351L37.6058 53.4185H50.8227L52.2997 58.5351C52.4685 59.1197 53.0019 59.4999 53.5814 59.4999C53.7039 59.4999 53.8285 59.4829 53.9521 59.4473C54.6602 59.2429 55.0686 58.5029 54.8641 57.7948L53.1023 51.6911ZM45.4966 25.3441C45.3318 24.7729 44.8088 24.3796 44.2144 24.3796C43.6201 24.3796 43.097 24.7729 42.9323 25.3441L41.4111 30.6138C39.6794 29.6212 38.5703 27.76 38.5703 25.7143C38.5703 22.602 41.1023 20.0701 44.2146 20.0701C47.3268 20.0701 49.8588 22.602 49.8588 25.7143C49.8588 27.7772 48.754 29.6273 47.0187 30.6158L45.4966 25.3441ZM44.2143 30.5264L48.1051 44.0042H40.3235L44.2143 30.5264ZM32.6693 25.7143C32.6693 19.3483 37.8485 14.1693 44.2143 14.1693C50.5801 14.1693 55.7594 19.3483 55.7594 25.7143C55.7594 30.4196 52.9519 34.5815 48.6781 36.365L47.7729 33.2297C50.6554 31.8707 52.5276 28.9727 52.5276 25.7143C52.5276 21.1302 48.7983 17.4008 44.2141 17.4008C39.6299 17.4008 35.9009 21.1302 35.9009 25.7143C35.9009 28.946 37.7807 31.8656 40.6563 33.2282L39.7508 36.3647C35.4738 34.5828 32.6693 30.4312 32.6693 25.7143ZM38.3765 50.7491L39.5531 46.6735H48.8757L50.0523 50.7491H38.3765Z" fill="white"/>
<defs>
<filter id="filter0_bd_7838_43830" x="0.5" y="-4" width="87" height="82" filterUnits="userSpaceOnUse" color-interpolation-filters="sRGB">
<feFlood flood-opacity="0" result="BackgroundImageFix"/>
<feGaussianBlur in="BackgroundImageFix" stdDeviation="2"/>
<feComposite in2="SourceAlpha" operator="in" result="effect1_backgroundBlur_7838_43830"/>
<feColorMatrix in="SourceAlpha" type="matrix" values="0 0 0 0 0 0 0 0 0 0 0 0 0 0 0 0 0 0 127 0" result="hardAlpha"/>
<feOffset dy="4"/>
<feGaussianBlur stdDeviation="2"/>
<feComposite in2="hardAlpha" operator="out"/>
<feColorMatrix type="matrix" values="0 0 0 0 0 0 0 0 0 0 0 0 0 0 0 0 0 0 0.25 0"/>
<feBlend mode="normal" in2="effect1_backgroundBlur_7838_43830" result="effect2_dropShadow_7838_43830"/>
<feBlend mode="normal" in="SourceGraphic" in2="effect2_dropShadow_7838_43830" result="shape"/>
</filter>
</defs>
</svg>
